<?xml version="1.0" encoding="UTF-8"?>
<svg id="Capa_1" data-name="Capa 1" xmlns="http://www.w3.org/2000/svg" viewBox="0 0 1886.02 357.77">
  <defs>
    <style>
      .cls-1 {
        fill: #fff;
      }
    </style>
  </defs>
  <path class="cls-1" d="M1885.98,82.2l.03,178.33-46.65.04c-2.64,0-10.95-5.71-12.88-7.2-25.73,11.74-54.85,20.48-83.23,10.35-40.83-14.57-65.17-54.03-63.52-95.9,1.51-38.34,27.01-76.86,66.71-88.91,26.69-8.1,53.5-.92,77.94,11.23l13.43-8.15,48.18.22ZM1765.07,127.78c-27.72,11.56-36.13,42.09-25.04,64.69,11.48,23.37,38.8,32.25,60.09,24.23,27.11-10.22,38.68-38.91,28.83-62.18-10.22-24.15-37.61-37.68-63.88-26.73Z"/>
  <path class="cls-1" d="M238.77,357.77l-19.11-.06-26.09-7.82,10.47-42.68c41.25-.05,54.51-6.2,70.66-41.01-5.28-4.57-12.75-11.21-14.47-15.56l-66.73-168.2,42.72-.75c7.06-.22,16.63,5.39,19.34,12.25l41.83,106.15,46.91-118.15,57.31.69-88.07,218.83c-13.26,32.95-42.64,50.92-74.76,56.3Z"/>
  <path class="cls-1" d="M1577.31,354.93c-41.86,4.21-73.88-7.74-100.12-37.95l43.91-30.62c12.76,10.91,26.88,20.47,42.19,20.27,28.62-.37,48.28-25.91,44.47-55.36-29.61,21.49-63.74,24.03-95.32,8.28-37.34-18.63-57.63-56.57-53.77-97.66,3.51-37.39,30.35-73.29,70.09-84,25.9-6.98,51.69.02,74.94,12.33l11.31-8.08,47.93.23c-.33,66.42,4.36,130.01-2.15,196.03-3.98,40.37-44.15,72.57-83.48,76.53ZM1544.53,127.36c-28.08,10.56-37.46,41.15-25.84,65.58,10.42,21.92,37.19,32.53,60.49,23.53,25.19-9.74,37.88-37.31,28.76-60.6-9.7-24.78-36.11-38.78-63.41-28.51Z"/>
  <path class="cls-1" d="M1248.51,260.24l-53.83.35-.94-105.39c-.14-16.23-15.85-29.52-28.73-31-13.53-1.55-33.67,11.34-33.85,28.56l-1.13,107.75-54.82-.06V83.09s53.35-.06,53.35-.06l3.03,13.93c12.97-14.58,29.18-23.87,48.18-23.12,19.8.78,36.94,10.12,52.61,25.4,27.41-26.13,66.23-32.97,98.6-16.08,23.12,12.07,36.68,35.03,36.62,60.95l-.26,117.4-52.77-.37c-2.47-57.2,12.11-136.11-32.05-137.12-45.72-1.04-31.85,76.78-34,136.22Z"/>
  <path class="cls-1" d="M141.24,263.36c-28.78,10.45-57.58,2.85-82.71-10.03l-11.23,8.19-47.26-.42-.04-247.89,52.39-.17.31,80.48c36.8-27.22,80.52-24.88,114.54,1.91,27.56,21.7,40.64,55.94,35.46,90.61-4.81,32.18-26.02,64.45-61.47,77.32ZM81.24,127.84c-27.78,11.83-36.1,42.35-25,64.39,11.88,23.6,38.79,32.55,60.33,24.61,27.3-10.07,37.96-39.3,28.44-62.42-10.02-24.35-37.65-37.7-63.77-26.58Z"/>
  <path class="cls-1" d="M684.53,261.4l-52.53.05-1.43-101.98c-.3-21.32-20.18-35.61-37.81-35.6-19.54.02-38.57,16.33-38.77,38.74l-.89,97.91-53.03-.11V14s53.17-.09,53.17-.09l.49,85.58c27.89-27.98,61.35-32.94,93.75-14.9,18.88,10.52,35.25,28.09,36.39,51.48,2.07,42.36,1.27,83.58.64,125.33Z"/>
  <path class="cls-1" d="M885.08,234.14c-39.83,44.4-105.05,46.74-150.53,11.28-47.41-36.96-48.68-105.14-3.32-144.38,39.51-34.17,97.34-36.65,139.18-5.19,44.47,33.43,53.24,95.3,14.68,138.29ZM802.33,219.61c29.89,1.04,52.47-22.49,51.82-48.12-.68-26.6-22.33-47.52-50.5-47.41s-48.86,21.72-49.58,47.11c-.71,25.14,18.95,47.41,48.27,48.43Z"/>
  <path class="cls-1" d="M979.97,261.13l-53.41.29.05-178.43,52.21.11,2.06,18.07,16.31-12.67c19.24-14.94,42.02-20.66,65.77-7.43l-7.87,41-55.94,8.66c-9,1.39-18.63,14.81-19.51,23.66l.31,106.74Z"/>
  <polygon class="cls-1" points="1443.97 261.45 1391.58 261.11 1391.59 82.27 1443.97 82.11 1443.97 261.45"/>
  <path class="cls-1" d="M1409.22,1.21c20.2-5.41,36.14,8.31,39.38,22.24,4.56,19.62-5.23,35.63-20.62,40.01-19.03,5.42-35.88-4.42-40.53-20.22-5.1-17.33,2.06-36.75,21.76-42.03Z"/>
</svg>