<?xml version="1.0" standalone="no"?>
<!DOCTYPE svg PUBLIC "-//W3C//DTD SVG 20010904//EN"
 "http://www.w3.org/TR/2001/REC-SVG-20010904/DTD/svg10.dtd">
<svg version="1.0" xmlns="http://www.w3.org/2000/svg"
 width="514.000000pt" height="98.229046pt" viewBox="0 0 514.000000 98.229046"
 preserveAspectRatio="xMidYMid meet">
<metadata>
Created by potrace 1.16, written by Peter Selinger 2001-2019
</metadata>
<g transform="translate(-1.000000,98.700934) scale(0.100000,-0.100000)"
fill="#000000" stroke="none">
<path d="M3850 983 c-62 -23 -81 -103 -35 -148 53 -54 145 -16 145 59 0 58
-62 108 -110 89z"/>
<path d="M10 610 l0 -340 69 0 c43 0 71 4 73 11 3 8 22 5 61 -10 78 -29 140
-27 205 5 92 46 144 133 145 239 0 190 -190 318 -357 242 l-56 -26 0 110 0
109 -70 0 -70 0 0 -340z m340 15 c90 -46 75 -196 -23 -234 -95 -36 -197 56
-173 156 4 14 22 41 41 60 28 28 40 33 79 33 26 0 60 -7 76 -15z"/>
<path d="M1370 610 l0 -340 75 0 75 0 0 145 c0 190 16 225 105 225 89 0 105
-35 105 -225 l0 -145 75 0 75 0 0 149 c0 238 -18 289 -117 338 -69 33 -144 30
-200 -10 l-38 -27 -3 115 -3 115 -74 0 -75 0 0 -340z"/>
<path d="M2090 763 c-27 -10 -65 -37 -97 -68 -110 -110 -108 -259 4 -367 85
-83 216 -106 323 -57 182 84 224 290 86 425 -33 32 -70 57 -101 67 -60 21
-155 21 -215 0z m188 -143 c18 -11 40 -37 48 -57 58 -137 -134 -247 -230 -132
-47 55 -29 160 32 193 39 22 111 20 150 -4z"/>
<path d="M2755 760 c-16 -11 -40 -27 -52 -36 -22 -16 -23 -16 -23 10 l0 27
-72 -3 -73 -3 -3 -242 -2 -243 75 0 75 0 0 155 c0 192 2 195 125 214 43 6 80
12 81 14 10 11 19 98 12 111 -13 24 -104 22 -143 -4z"/>
<path d="M3155 768 c-11 -6 -30 -20 -42 -31 l-23 -20 0 21 c0 21 -5 22 -75 22
l-75 0 0 -245 0 -245 75 0 75 0 0 154 c0 152 0 155 26 185 33 40 83 43 119 6
24 -24 25 -28 25 -185 l0 -160 75 0 75 0 0 114 c0 129 13 211 37 238 23 26 87
24 111 -3 27 -28 32 -61 32 -215 l0 -134 76 0 76 0 -4 188 c-3 149 -7 193 -20
217 -53 98 -174 132 -284 81 -28 -13 -55 -29 -59 -36 -5 -8 -15 -4 -34 14 -14
13 -39 30 -54 35 -36 14 -106 14 -132 -1z"/>
<path d="M4166 770 c-118 -36 -206 -188 -177 -305 25 -101 71 -158 156 -196
77 -34 146 -28 238 19 4 2 7 -9 7 -25 0 -66 -78 -133 -139 -118 -14 3 -42 17
-62 30 l-36 23 -56 -39 c-35 -25 -54 -45 -51 -54 8 -19 76 -64 121 -81 62 -22
160 -18 218 10 55 25 120 90 140 140 17 43 27 267 19 441 l-7 145 -68 0 c-39
0 -69 -4 -71 -11 -2 -7 -25 -4 -65 10 -65 22 -118 25 -167 11z m178 -151 c87
-68 64 -195 -42 -230 -47 -15 -102 2 -136 42 -47 55 -29 160 32 193 41 23 114
20 146 -5z"/>
<path d="M4755 764 c-53 -19 -112 -78 -141 -139 -60 -126 -5 -288 117 -348 65
-33 127 -35 207 -7 34 12 58 16 60 10 2 -5 37 -10 78 -10 l74 0 0 245 0 245
-74 0 c-45 0 -76 -4 -78 -11 -2 -7 -25 -4 -65 10 -72 24 -122 26 -178 5z m185
-140 c37 -23 60 -64 60 -111 0 -115 -139 -173 -220 -91 -55 55 -54 132 5 186
29 26 43 32 81 32 25 0 58 -7 74 -16z"/>
<path d="M540 756 c0 -23 187 -475 201 -486 19 -15 19 -17 -10 -62 -31 -49
-38 -53 -117 -63 l-51 -6 -12 -56 c-7 -30 -10 -57 -8 -60 3 -2 23 -9 44 -13
84 -19 186 18 240 88 19 25 78 158 152 346 67 168 121 307 121 310 0 3 -35 6
-77 6 l-78 0 -60 -160 c-33 -88 -62 -160 -65 -160 -3 0 -29 64 -59 143 -29 78
-60 150 -69 160 -12 13 -31 17 -84 17 -37 0 -68 -2 -68 -4z"/>
<path d="M3800 515 l0 -245 75 0 75 0 0 245 0 245 -75 0 -75 0 0 -245z"/>
</g>
</svg>
