<?xml version="1.0" encoding="UTF-8"?>
<!-- Generator: visioncortex VTracer 0.6.12 -->
<svg version="1.1" xmlns="http://www.w3.org/2000/svg" width="370" height="165" viewBox="0 0 370 165">
<path d="M0 0 C7.677761765102488 6.171929780204966 7.677761765102488 6.171929780204966 8.96484375 8.74609375 C13.007046025287991 8.08898697618471 16.150457475322042 5.955288327378227 19.58984375 3.87109375 C30.9430235919084 -2.736096685533437 41.77426697089453 -5.325903318897404 55.01953125 -2.6328125 C64.16202250687908 0.28087097421783724 71.20094157370173 6.1965635646434905 76.96484375 13.74609375 C79.80785056959769 13.143586753002324 81.99056836671159 12.293914307368464 84.46875 10.78515625 C85.121337890625 10.39706787109375 85.77392578125 10.0089794921875 86.4462890625 9.609130859375 C87.13303710937501 9.200578613281252 87.81978515624999 8.7920263671875 88.52734375 8.37109375 C100.11665397037766 1.706586349004052 111.68096912842131 -1.6766767190272454 125.02734375 1.87109375 C134.52333243081182 5.202226287237167 141.73503305063616 10.087072916232923 149.08984375 16.87109375 C149.75395263671874 17.48122314453125 150.4180615234375 18.0913525390625 151.102294921875 18.719970703125 C151.71951416015625 19.30866943359375 152.3367333984375 19.8973681640625 152.97265625 20.50390625 C153.5258251953125 21.0312939453125 154.078994140625 21.558681640625 154.64892578125 22.10205078125 C156.13896288896393 23.963629609328954 156.55935530678104 25.41753999104686 156.96484375 27.74609375 C155.72609953712018 28.92470474866235 154.47336364736614 30.088622895488065 153.21484375 31.24609375 C152.51875 31.89578125 151.82265625 32.54546875 151.10546875 33.21484375 C148.96484375 34.74609375 148.96484375 34.74609375 144.96484375 34.74609375 C143.39453124999997 33.46093749999997 143.39453124999997 33.46093749999997 141.83984375 31.68359375 C134.1747161132562 23.609004166848962 125.35139999089776 17.8127496096294 114.02734375 17.37109375 C103.59793862444502 17.772842791816448 95.66093282054851 22.29236091365945 86.96484375 27.74609375 C88.46226509240728 34.41642518435974 90.70597840567498 39.39569654055975 96.375 43.484375 C104.29607809269976 48.37234513378674 110.86641873546597 50.058874489200406 120.150634765625 48.060302734375 C130.03764413214697 45.446993313719894 139.5351382334342 42.127341961259134 149.08984375 38.49609375 C150.62933333185845 37.91704744546693 152.1690492510006 37.338602559317394 153.708984375 36.7607421875 C158.1312528304607 35.09875910159453 162.54860655187164 33.424025241429376 166.96484375 31.74609375 C168.154326171875 31.294921875 169.34380859375 30.84375 170.5693359375 30.37890625 C175.1521522547356 28.63940268564584 179.7325529443804 26.893965123580486 184.30859375 25.13671875 C186.51210671542947 24.298630485370836 188.72831179285907 23.491604402380297 190.96484375 22.74609375 C191.68236295764325 21.43942301531385 192.34038280946044 20.099707711202637 192.96484375 18.74609375 C195.46274543740145 15.188064628434844 198.13502663862897 11.760311650606667 200.77734375 8.30859375 C201.13344726562502 7.837763671875003 201.13344726562502 7.837763671875003 202.935546875 5.455078125 C213.70449982541908 -8.661116445530737 213.70449982541908 -8.661116445530737 219.71484375 -9.75390625 C224.41678864533554 -9.030530112256066 226.99422670546647 -6.805297339655365 229.96484375 -3.25390625 C232.6800673540123 1.619477419701365 234.8850389294335 6.688439494449714 237.08984375 11.80859375 C237.98178318091107 13.860537877101383 238.87902414804012 15.909531632931447 239.79025268554688 17.952987670898438 C240.61412353696647 19.802889158696516 241.41920679432053 21.661124587080366 242.22314453125 23.519775390625 C245.12571130483235 28.896481293749538 249.2266738969803 32.07168395140046 254.21484375 35.43359375 C267.02231579808097 44.66048221474652 275.6829664666142 57.06049423595972 278.30810546875 72.73291015625 C280.1202754565227 85.85779469507479 277.8586154458057 100.15431357817825 271.23828125 111.77734375 C268.7094428900208 117.67279514136256 271.32061134973424 123.30757634748531 273.40234375 129.05859375 C273.8341796875 130.2716015625 274.266015625 131.484609375 274.7109375 132.734375 C275.96484375 135.74609375000003 275.96484375 135.74609375000003 277.96484375 137.74609375 C280.11962890625006 138.06494140625 280.11962890625006 138.06494140625 282.75390625 138.16015625 C283.694921875 138.198828125 284.6359375 138.2375 285.60546875 138.27734375 C286.097890625 138.2928125 286.097890625 138.2928125 288.58984375 138.37109375 C289.0861328125 138.3904296875 289.0861328125 138.3904296875 291.59765625 138.48828125 C294.0531975979787 138.58272514799918 296.508727847613 138.6682924994222 298.96484375 138.74609375 C300.093465504501 144.10704708387973 300.0617259600227 149.29916060872108 299.96484375 154.74609375 C295.7549887103578 154.49626536122088 291.54752479745633 154.21753396946173 287.33984375 153.93359375 C286.74494140625 153.898466796875 286.74494140625 153.898466796875 283.734375 153.720703125 C282.5806640625 153.64013671875 281.426953125 153.5595703125 280.23828125 153.4765625 C279.70936279296876 153.44252319335936 279.70936279296876 153.44252319335936 277.03271484375 153.270263671875 C272.2968957871314 152.4611117130528 269.0880583137782 150.9342079394377 265.776123046875 147.430908203125 C259.78644777017394 138.5525608493197 256.6182261800725 128.25182852138983 253.65234375 118.05859375 C253.24299798825479 116.6809926328065 252.8328032088129 115.30364358511972 252.421875 113.926513671875 C249.8990989087157 105.44178043586632 247.43800684344978 96.93886144747913 244.96530151367188 88.43943786621094 C243.13383577095226 82.145233853318 241.29976129877753 75.85179222400085 239.46484375 69.55859375 C239.0971789550781 68.29626922607422 238.72951416015627 67.03394470214843 238.3507080078125 65.73336791992188 C232.96310976249333 47.25784880768778 227.3803954005025 28.893285047654963 220.96484375 10.74609375 C220.30484374999997 10.74609375 219.64484375 10.74609375 218.96484375 10.74609375 C217.5290290149362 12.360664536417097 216.1633959187485 14.03828450000194 214.83984375 15.74609375 C214.11539062499997 16.67421875 213.3909375 17.60234375 212.64453125 18.55859375 C212.09023437500002 19.28046875 211.5359375 20.00234375 210.96484375 20.74609375 C211.51140625 20.90078125 211.51140625 20.90078125 214.27734375 21.68359375 C216.77434340844252 22.740016682417995 217.76090244325428 23.38110913551374 219.09765625 25.7734375 C220.51223573805737 29.90043882195385 221.0123331477821 33.38701931358212 220.96484375 37.74609375 C220.32458251953125 37.75020263671875 219.6843212890625 37.7543115234375 219.024658203125 37.758544921875 C216.10796470349987 37.791554128525355 213.19333991117475 37.86220401347406 210.27734375 37.93359375 C209.26994140624998 37.93939453125 208.26253906250003 37.9451953125 207.224609375 37.951171875 C199.77761964362617 38.172369589793284 199.77761964362617 38.172369589793284 196.2421875 40.66796875 C195.4906640625 41.68375 194.739140625 42.69953125 193.96484375 43.74609375 C193.39612548828126 44.46708251953125 192.8274072265625 45.1880712890625 192.241455078125 45.930908203125 C190.19540696916243 48.530191723582526 188.20225249647712 51.164246388006966 186.21484375 53.80859375 C185.50908203125 54.74147216796875 184.8033203125 55.6743505859375 184.076171875 56.635498046875 C182.03487525252183 59.3359047932089 179.99890398225511 62.04023380800923 177.96484375 64.74609375 C177.43052734375 65.45572265625 176.8962109375 66.1653515625 176.345703125 66.896484375 C173.87809493025694 70.17425121097199 171.41670190984703 73.45651738553858 168.96484375 76.74609375 C182.4368342591013 94.83705243365031 210.44089148904226 105.68382670356571 231.96484375 109.74609375 C235.29412785132473 110.194097679202 238.6126915351777 110.5310220371021 241.96484375 110.74609375 C243.79275209828023 114.6511706758714 245.1725632359868 118.2756201902942 246.06640625 122.5 C246.15188720703122 122.89932739257813 246.15188720703122 122.89932739257813 246.58447265625 124.920166015625 C246.70999511718747 125.52272216796874 246.835517578125 126.1252783203125 246.96484375 126.74609375 C218.78522626116631 123.36391620847516 191.52464436793088 116.95507567732992 168.96484375 98.74609375 C168.41634765625 98.3082958984375 167.8678515625 97.870498046875 167.302734375 97.41943359375 C165.53303672493152 95.99984538444146 163.77775421716908 94.56438028743213 162.02734375 93.12109375 C161.75523071289064 92.89949584960937 161.75523071289064 92.89949584960937 160.378173828125 91.778076171875 C155.96197001529433 88.051882685016 152.51474622793316 84.29564160223562 151.27734375 78.55859375 C152.3354158621969 72.69110294599898 155.54565070152185 68.5211736970126 158.96484375 63.74609375 C159.49529296875 63.001337890624995 160.0257421875 62.256582031250005 160.572265625 61.4892578125 C164.33616260529237 56.216864773773835 168.13727503450232 50.972413045038884 171.96484375 45.74609375 C171.70437255859375 45.86146484375 171.70437255859375 45.86146484375 170.38623046875 46.4453125 C160.1012892663014 50.97955797892746 149.77216105301196 55.319524996348235 139.21484375 59.18359375 C138.3239404296875 59.512949218749995 137.433037109375 59.842304687500004 136.51513671875 60.181640625 C124.13743230075929 64.64031362083949 109.2241312089869 67.86615876245133 96.40234375 63.18359375 C94.12109374999989 62.05078124999994 94.12109374999989 62.05078124999994 91.96484375 60.74609375 C91.21203125 60.294921875 90.45921874999999 59.84375 89.68359375 59.37890625 C83.55776457346332 55.1621539743703 79.79547088950821 49.68299728986196 75.8125 43.5390625 C73.96484375 40.74609374999998 73.96484375 40.74609374999998 71.96484375 38.74609375 C71.47306640624998 39.0851171875 71.47306640624998 39.0851171875 68.984375 40.80078125 C52.72367316140918 51.79107459149374 35.9595580918629 59.820118385864006 16.96484375 64.74609375 C9.296515252016917 66.82380190668965 2.7326506986014465 69.04915657513057 -3.9140625 73.4765625 C-6.0600149070414275 74.76097232005242 -7.553449494219329 75.47198018328655 -10.03515625 75.74609375 C-12.10546875 75.109375 -12.10546875 75.109375 -14.16015625 74.05859375 C-14.843359374999999 73.7247265625 -15.526562499999997 73.390859375 -16.23046875 73.046875 C-18.42298039645513 71.4665581639187 -19.133554243720234 70.2827253013467 -20.03515625 67.74609375 C-21.23629539924986 51.854098852232624 -11.306517313916736 33.82695816661878 -2.03515625 21.74609375 C-5.2180591020690485 15.933836367960872 -9.319405965202158 12.991720796141486 -15.03515625 9.74609375 C-15.629414062499997 9.401914062500001 -16.223671875 9.057734374999999 -16.8359375 8.703125 C-25.95432388834392 4.396658701292115 -37.73031160413587 5.831020010878039 -46.97265625 8.99609375 C-52.43068360648631 11.02550858276133 -57.77312566022908 13.253552944319036 -63.03515625 15.74609375 C-65.34515625 12.116093750000001 -67.65515625 8.486093749999998 -70.03515625 4.74609375 C-66.44786113762055 0.7919161829453785 -62.928508782957856 -1.6815163680549983 -58.03515625 -3.87890625 C-57.3772509765625 -4.17740478515625 -56.719345703125 -4.4759033203125 -56.04150390625 -4.783447265625 C-37.11690188692373 -13.066659527872813 -16.884183307189417 -12.53819017792573 0 0 Z M9.96484375 30.74609375 C8.266797793830065 33.012493931168954 6.66090210187906 35.327637422804905 5.08984375 37.68359375 C4.708120117187505 38.24441650390625 4.326396484374996 38.8052392578125 3.93310546875 39.383056640625 C1.0248728261515652 43.94556736534928 -0.13283538877008993 48.43836828331624 -1.03515625 53.74609375 C22.79470904945852 47.95540979705207 45.76168346320637 40.4577703482857 64.96484375 24.74609375 C63.54648600501196 21.443865974489373 61.8580849297507 19.469863340070404 59.15234375 17.12109375 C58.4858984375 16.530703125 57.819453124999995 15.940312500000001 57.1328125 15.33203125 C41.66369972903155 4.015887493219472 20.07834070386258 18.36303251908953 9.96484375 30.74609375 Z M250.96484375 53.74609375 C254.06556872343663 66.4773056997574 257.4788373910574 79.11543343543443 260.96484375 91.74609375 C261.62484375 91.74609375 262.28484375 91.74609375 262.96484375 91.74609375 C264.76602479909053 79.1621666908133 263.0664387657155 68.53474712601918 255.96484375 57.74609375 C253.265625 55.3984375 253.265625 55.3984375 250.96484375 53.74609375 Z " fill="#000000" transform="translate(70.03515625,10.25390625)"/>
</svg>
